# xmcd
# 
# Track frame offsets:
#     150
#     18213
#     40840
#     58890
# 
# Disc length: 1084
# 
# Revision: 7
# Processed by: cddbd v1.5.2PL0 Copyright (c) Steve Scherf et al.
# Submitted via: fre:ac v1.0.17
# 
DISCID=2b043a04
DTITLE=Various Artist - Resonant World/HIKARI
DYEAR=2013
DGENRE=Game
TTITLE0=松永真穂（from StylipS） - Resonant World
TTITLE1=ChouCho - 光
TTITLE2=松永真穂（from StylipS） - Resonant World (Off Vocal)
TTITLE3=ChouCho - 光 (Off Vocal)
EXTD=
EXTT0=
EXTT1=
EXTT2=
EXTT3=
PLAYORDER=
